<svg fill="currentColor" xmlns="http://www.w3.org/2000/svg" viewBox="0 0 240 240"><path fill-rule="evenodd" d="M189.5 22.4c-3.6 1.6-6.7 4.4-12 11.1-2.2 2.8-7 8.4-10.5 12.6-10.4 12.2-15 17.7-22.5 27l-18.4 22.4c-14.4 17.4-14.6 18-21.5 41a511 511 0 0 1-8.2 25.3c-3 8-3 10.3.2 14.1q4.8 5.6 12.4 1c3.4-2.2 9.6-5.7 30.9-17.3a58 58 0 0 0 21.1-16.2 2952 2952 0 0 0 59.8-71.8C228.9 62 231 58 231 52s-2.2-10.2-7.1-14c-2.4-1.9-7.3-6-10.9-9.2-8.5-7.6-16-9.7-23.5-6.4m4.9 13.6c-2.6 1-5.4 4.8-5.4 7.2 0 3.5 16.6 16.8 21 16.8 2.6 0 5.8-3 6.6-6.2S211 43.2 203.2 38c-4.8-3.2-5.5-3.4-8.8-2m-16.8 22.6c-.8 2 14.5 17.4 17.3 17.4 5.8 0 4.2-6.4-2.6-10.8a48 48 0 0 1-7.3-5.7c-2.6-2.8-6.5-3.3-7.4-1M158 77.9c-12.5 13.3-27.8 33-27.9 35.8 0 3.7 16.4 17.4 20.9 17.4 2.9 0 7-3.8 15.8-14.8l13-16c6.9-8.2 7-10.5.6-17.4-6-6.5-12-10.8-14.8-10.8q-2.3.1-7.6 5.8m-38.5 55.7c-8.4 20.3-3.2 25.4 14.1 13.6 6-4 5.7-6-1.5-12-7.5-6.3-10.5-6.6-12.6-1.6m-44.7 25.8a238 238 0 0 0-14.4 17.8C48 193.5 44.8 197 42.2 197c-1.2 0-4.8-3-9.2-7.7-12.5-13.6-18.8-16.6-22.6-10.8-3 4.6-1.3 8.2 10.5 21.7 12.2 14 14.8 16.3 20 17.9 6.8 2 10.3-1.2 26.1-23.6 3.6-5 8.3-11.5 10.7-14.5l7.8-10c4.2-5.4 4.5-9 1-12.5-3.6-3.7-6.9-3.2-11.8 1.8"/></svg>